<?xml version="1.0" encoding="utf-8"?>
<!-- Generator: Adobe Illustrator 26.0.3, SVG Export Plug-In . SVG Version: 6.00 Build 0)  -->
<svg version="1.1" id="Layer_1" xmlns="http://www.w3.org/2000/svg" xmlns:xlink="http://www.w3.org/1999/xlink" x="0px" y="0px"
	 viewBox="0 0 139 40" style="enable-background:new 0 0 139 40;" xml:space="preserve">
<g>
	<defs>
		<rect id="SVGID_1_" width="40" height="40"/>
	</defs>
	<clipPath id="SVGID_00000164505234839688776120000015518565190551019138_">
		<use xlink:href="#SVGID_1_"  style="overflow:visible;"/>
	</clipPath>
	<g style="clip-path:url(#SVGID_00000164505234839688776120000015518565190551019138_);">
		<path style="fill:#FF9E00;" d="M28.2,0c-2.6,0-4.7,2.1-4.7,4.7s2.1,4.7,4.7,4.7c2.6,0,4.7-2.1,4.7-4.7S30.8,0,28.2,0z"/>
		<path style="fill:#FF9E00;" d="M23.6,36.4c0,2-1.6,3.6-3.6,3.6s-3.6-1.6-3.6-3.6V24.8c0-3.3,1.3-6.2,3.5-8.4s5.1-3.5,8.3-3.5
			s6.2,1.3,8.3,3.5c2.1,2.2,3.5,5.1,3.5,8.4v11.6c0,2-1.6,3.6-3.6,3.6c-2,0-3.6-1.6-3.6-3.6V24.8c0-1.3-0.5-2.5-1.4-3.3
			c-0.9-0.9-2-1.4-3.3-1.4c-1.3,0-2.4,0.5-3.3,1.4c-0.9,0.9-1.4,2-1.4,3.3L23.6,36.4L23.6,36.4z"/>
		<path style="fill:#0093F7;" d="M11.8,0C9.2,0,7.1,2.1,7.1,4.7s2.1,4.7,4.7,4.7c2.6,0,4.7-2.1,4.7-4.7S14.4,0,11.8,0z"/>
		<path style="fill:#0093F7;" d="M7.1,36.4c0,2-1.6,3.6-3.6,3.6c-2,0-3.6-1.6-3.6-3.6V24.8c0-3.3,1.3-6.2,3.5-8.4
			c2.1-2.1,5.1-3.5,8.3-3.5c3.2,0,6.2,1.3,8.3,3.5c2.1,2.2,3.5,5.1,3.5,8.4v11.6c0,2-1.6,3.6-3.6,3.6s-3.6-1.6-3.6-3.6V24.8
			c0-1.3-0.5-2.5-1.4-3.3c-0.9-0.9-2-1.4-3.3-1.4s-2.4,0.5-3.3,1.4c-0.9,0.9-1.4,2-1.4,3.3L7.1,36.4L7.1,36.4z"/>
	</g>
</g>
<path style="fill:#FFFFFF;" d="M70.4,36.7h-7.6L55,21.6h-0.1c0,0.3,0.1,0.7,0.1,1.2c0,0.5,0.1,0.9,0.1,1.4s0,1,0.1,1.5
	c0,0.5,0,0.9,0,1.3v9.7H50V15.3h7.6l7.8,14.9h0.1c0-0.3,0-0.7-0.1-1.2c0-0.5,0-0.9-0.1-1.4c0-0.5,0-1-0.1-1.4c0-0.5,0-0.9,0-1.2
	v-9.7h5.2V36.7z"/>
<path style="fill:#FFFFFF;" d="M82.8,19.8c2.1,0,3.7,0.5,4.9,1.6c1.2,1,1.8,2.5,1.8,4.4v10.9h-4l-1.1-2.2h-0.1
	c-0.5,0.6-0.9,1.1-1.4,1.4c-0.5,0.4-1,0.6-1.7,0.8c-0.6,0.2-1.4,0.3-2.3,0.3c-1,0-1.8-0.2-2.6-0.6c-0.8-0.4-1.4-1-1.8-1.8
	c-0.4-0.8-0.7-1.8-0.7-3c0-1.8,0.6-3.1,1.8-4c1.2-0.9,3-1.3,5.4-1.4l2.8-0.1v-0.2c0-0.7-0.2-1.3-0.5-1.6c-0.4-0.3-0.9-0.5-1.5-0.5
	c-0.7,0-1.4,0.1-2.2,0.4c-0.8,0.2-1.6,0.5-2.4,0.9l-1.7-3.8c1-0.5,2-0.9,3.2-1.1C79.9,19.9,81.3,19.8,82.8,19.8z M82.5,29.4
	c-1,0-1.8,0.2-2.2,0.6c-0.4,0.3-0.6,0.8-0.6,1.4c0,0.6,0.2,1,0.5,1.3c0.3,0.3,0.7,0.4,1.2,0.4c0.7,0,1.3-0.2,1.8-0.7
	c0.5-0.4,0.8-1,0.8-1.7v-1.3L82.5,29.4z"/>
<path style="fill:#FFFFFF;" d="M101.5,19.8c2.1,0,3.7,0.5,4.9,1.6c1.2,1,1.8,2.5,1.8,4.4v10.9h-4l-1.1-2.2H103
	c-0.5,0.6-0.9,1.1-1.4,1.4c-0.5,0.4-1,0.6-1.7,0.8c-0.6,0.2-1.4,0.3-2.3,0.3c-1,0-1.8-0.2-2.6-0.6c-0.8-0.4-1.4-1-1.8-1.8
	c-0.4-0.8-0.7-1.8-0.7-3c0-1.8,0.6-3.1,1.8-4c1.2-0.9,3-1.3,5.4-1.4l2.8-0.1v-0.2c0-0.7-0.2-1.3-0.5-1.6c-0.4-0.3-0.8-0.5-1.5-0.5
	c-0.7,0-1.4,0.1-2.2,0.4c-0.8,0.2-1.6,0.5-2.4,0.9l-1.7-3.8c1-0.5,2-0.9,3.2-1.1C98.6,19.9,100,19.8,101.5,19.8z M101.2,29.4
	c-1,0-1.8,0.2-2.2,0.6c-0.4,0.3-0.6,0.8-0.6,1.4c0,0.6,0.1,1,0.4,1.3c0.3,0.3,0.7,0.4,1.2,0.4c0.7,0,1.3-0.2,1.8-0.7
	c0.5-0.4,0.8-1,0.8-1.7v-1.3L101.2,29.4z"/>
<path style="fill:#FFFFFF;" d="M132.3,19.8c1.9,0,3.3,0.5,4.3,1.4c1,1,1.5,2.5,1.5,4.6v10.8h-5.7v-9c0-1.3-0.2-2.1-0.5-2.6
	c-0.3-0.5-0.8-0.8-1.5-0.8c-0.9,0-1.6,0.4-1.9,1.2c-0.4,0.8-0.5,1.9-0.5,3.4v7.7h-5.7v-9c0-0.8-0.1-1.4-0.2-1.9
	c-0.1-0.5-0.3-0.9-0.6-1.1c-0.3-0.2-0.6-0.4-1.1-0.4c-0.7,0-1.2,0.2-1.6,0.6c-0.4,0.4-0.6,1-0.8,1.7c-0.1,0.8-0.2,1.7-0.2,2.8v7.3
	h-5.7V20.1h4.3l0.8,2h0.2c0.3-0.5,0.7-0.9,1.1-1.2c0.5-0.4,1-0.6,1.6-0.8s1.4-0.3,2.2-0.3c1.2,0,2.2,0.2,3,0.6
	c0.8,0.4,1.4,1,1.9,1.7h0.2c0.5-0.7,1.2-1.3,2-1.7C130.3,20,131.3,19.8,132.3,19.8z"/>
</svg>
