<?xml version="1.0" encoding="utf-8"?>
<!-- Generator: Adobe Illustrator 26.0.3, SVG Export Plug-In . SVG Version: 6.00 Build 0)  -->
<svg version="1.1" id="Layer_1" xmlns="http://www.w3.org/2000/svg" xmlns:xlink="http://www.w3.org/1999/xlink" x="0px" y="0px"
	 viewBox="0 0 46.2 46.4" style="enable-background:new 0 0 46.2 46.4;" xml:space="preserve">
<g>
	<circle style="fill:#FFFFFF;" cx="23.2" cy="23.3" r="22.3"/>
	<g>
		<g>
			<defs>
				<rect id="SVGID_1_" x="8.4" y="8.6" width="29.4" height="29.4"/>
			</defs>
			<clipPath id="SVGID_00000156571695638336552380000002733897779819696272_">
				<use xlink:href="#SVGID_1_"  style="overflow:visible;"/>
			</clipPath>
			<g style="clip-path:url(#SVGID_00000156571695638336552380000002733897779819696272_);">
				<path style="fill:#F99E1C;" d="M29.2,8.6c-1.9,0-3.5,1.5-3.5,3.5s1.5,3.5,3.5,3.5s3.5-1.5,3.5-3.5S31.1,8.6,29.2,8.6z"/>
				<path style="fill:#F99E1C;" d="M25.8,35.4c0,1.5-1.2,2.6-2.6,2.6s-2.6-1.2-2.6-2.6v-8.5c0-2.4,1-4.6,2.6-6.2
					c1.6-1.6,3.8-2.6,6.1-2.6s4.6,1,6.1,2.6s2.6,3.8,2.6,6.2v8.5c0,1.5-1.2,2.6-2.6,2.6s-2.6-1.2-2.6-2.6v-8.5c0-1-0.4-1.8-1-2.4
					c-0.7-0.7-1.5-1-2.4-1c-1,0-1.8,0.4-2.4,1c-0.7,0.7-1,1.5-1,2.4L25.8,35.4L25.8,35.4z"/>
				<path style="fill:#448BCA;" d="M17.1,8.6c-1.9,0-3.5,1.5-3.5,3.5s1.5,3.5,3.5,3.5s3.5-1.5,3.5-3.5S19,8.6,17.1,8.6z"/>
				<path style="fill:#448BCA;" d="M13.7,35.4c0,1.5-1.2,2.6-2.6,2.6s-2.6-1.2-2.6-2.6v-8.5c0-2.4,1-4.6,2.6-6.2
					c1.5-1.5,3.8-2.6,6.1-2.6c2.4,0,4.6,1,6.1,2.6c1.5,1.6,2.6,3.8,2.6,6.2v8.5c0,1.5-1.2,2.6-2.6,2.6c-1.5,0-2.6-1.2-2.6-2.6v-8.5
					c0-1-0.4-1.8-1-2.4c-0.7-0.7-1.5-1-2.4-1c-1,0-1.8,0.4-2.4,1c-0.7,0.7-1,1.5-1,2.4L13.7,35.4L13.7,35.4z"/>
			</g>
		</g>
	</g>
</g>
<g>
</g>
<g>
</g>
<g>
</g>
<g>
</g>
<g>
</g>
<g>
</g>
</svg>
