<?xml version="1.0" encoding="utf-8"?>
<!-- Generator: Adobe Illustrator 26.0.3, SVG Export Plug-In . SVG Version: 6.00 Build 0)  -->
<svg version="1.1" id="Layer_1" xmlns="http://www.w3.org/2000/svg" xmlns:xlink="http://www.w3.org/1999/xlink" x="0px" y="0px"
	 viewBox="0 0 94.1 48.2" style="enable-background:new 0 0 94.1 48.2;" xml:space="preserve">
<g>
	<path style="fill:#FFFFFF;" d="M24.4,34.6h-7.6L9,19.5H8.9c0,0.3,0.1,0.7,0.1,1.2s0.1,0.9,0.1,1.4s0,1,0.1,1.5c0,0.5,0,0.9,0,1.3
		v9.7H4V13.2h7.6l7.8,14.9h0.1c0-0.3,0-0.7-0.1-1.2c0-0.5,0-0.9-0.1-1.4c0-0.5,0-1-0.1-1.4c0-0.5,0-0.9,0-1.2v-9.7h5.2V34.6z"/>
	<path style="fill:#FFFFFF;" d="M36.8,17.7c2.1,0,3.7,0.5,4.9,1.6c1.2,1,1.8,2.5,1.8,4.4v10.9h-4l-1.1-2.2h-0.1
		c-0.5,0.6-0.9,1.1-1.4,1.4c-0.5,0.4-1,0.6-1.7,0.8c-0.6,0.2-1.4,0.3-2.3,0.3c-1,0-1.8-0.2-2.6-0.6c-0.8-0.4-1.4-1-1.8-1.8
		s-0.7-1.8-0.7-3c0-1.8,0.6-3.1,1.8-4c1.2-0.9,3-1.3,5.4-1.4l2.8-0.1v-0.2c0-0.7-0.2-1.3-0.5-1.6c-0.4-0.3-0.9-0.5-1.5-0.5
		c-0.7,0-1.4,0.1-2.2,0.4c-0.8,0.2-1.6,0.5-2.4,0.9l-1.7-3.8c1-0.5,2-0.9,3.2-1.1C33.9,17.8,35.3,17.7,36.8,17.7z M36.5,27.3
		c-1,0-1.8,0.2-2.2,0.6c-0.4,0.3-0.6,0.8-0.6,1.4s0.2,1,0.5,1.3s0.7,0.4,1.2,0.4c0.7,0,1.3-0.2,1.8-0.7c0.5-0.4,0.8-1,0.8-1.7v-1.3
		L36.5,27.3z"/>
	<path style="fill:#FFFFFF;" d="M55.5,17.7c2.1,0,3.7,0.5,4.9,1.6c1.2,1,1.8,2.5,1.8,4.4v10.9h-4l-1.1-2.2H57
		c-0.5,0.6-0.9,1.1-1.4,1.4c-0.5,0.4-1,0.6-1.7,0.8c-0.6,0.2-1.4,0.3-2.3,0.3c-1,0-1.8-0.2-2.6-0.6c-0.8-0.4-1.4-1-1.8-1.8
		s-0.7-1.8-0.7-3c0-1.8,0.6-3.1,1.8-4c1.2-0.9,3-1.3,5.4-1.4l2.8-0.1v-0.2c0-0.7-0.2-1.3-0.5-1.6c-0.4-0.3-0.8-0.5-1.5-0.5
		s-1.4,0.1-2.2,0.4c-0.8,0.2-1.6,0.5-2.4,0.9l-1.7-3.8c1-0.5,2-0.9,3.2-1.1C52.6,17.8,54,17.7,55.5,17.7z M55.2,27.3
		c-1,0-1.8,0.2-2.2,0.6c-0.4,0.3-0.6,0.8-0.6,1.4s0.1,1,0.4,1.3S53.5,31,54,31c0.7,0,1.3-0.2,1.8-0.7c0.5-0.4,0.8-1,0.8-1.7v-1.3
		L55.2,27.3z"/>
	<path style="fill:#FFFFFF;" d="M86.3,17.7c1.9,0,3.3,0.5,4.3,1.4c1,1,1.5,2.5,1.5,4.6v10.8h-5.7v-9c0-1.3-0.2-2.1-0.5-2.6
		s-0.8-0.8-1.5-0.8c-0.9,0-1.6,0.4-1.9,1.2c-0.4,0.8-0.5,1.9-0.5,3.4v7.7h-5.7v-9c0-0.8-0.1-1.4-0.2-1.9s-0.3-0.9-0.6-1.1
		c-0.3-0.2-0.6-0.4-1.1-0.4c-0.7,0-1.2,0.2-1.6,0.6s-0.6,1-0.8,1.7c-0.1,0.8-0.2,1.7-0.2,2.8v7.3h-5.7V18h4.3l0.8,2h0.2
		c0.3-0.5,0.7-0.9,1.1-1.2c0.5-0.4,1-0.6,1.6-0.8s1.4-0.3,2.2-0.3c1.2,0,2.2,0.2,3,0.6s1.4,1,1.9,1.7h0.2c0.5-0.7,1.2-1.3,2-1.7
		C84.3,17.9,85.3,17.7,86.3,17.7z"/>
</g>
</svg>
